<?xml version="1.0" encoding="UTF-8" standalone="no"?>
<!DOCTYPE svg PUBLIC "-//W3C//DTD SVG 1.1//EN" "http://www.w3.org/Graphics/SVG/1.1/DTD/svg11.dtd">
<svg width="100%" height="100%" viewBox="0 0 32 32" version="1.1" xmlns="http://www.w3.org/2000/svg" xmlns:xlink="http://www.w3.org/1999/xlink" xml:space="preserve" xmlns:serif="http://www.serif.com/" style="fill-rule:evenodd;clip-rule:evenodd;stroke-linejoin:round;stroke-miterlimit:2;">
    <g transform="matrix(1,0,0,1,-669.991,-5384.02)">
        <g transform="matrix(1,0,0,1,28942,0)">
            <g transform="matrix(0.0383172,0,0,0.0383172,-27188.7,5177.72)">
                <g transform="matrix(1,0,0,1,-30042.5,1185.16)">
                    <rect x="1770.47" y="4198.86" width="835.135" height="835.135" style="fill:none;"/>
                </g>
                <g transform="matrix(1,0,0,1,-30042.5,1148.53)">
                    <path d="M1864.75,4916.43L1827.25,4916.43L1827.25,4739.5C1827.25,4612.42 1930.42,4509.25 2057.5,4509.25L2256.62,4509.25L2258.91,4389.34C2259.05,4382.04 2263.42,4375.48 2270.1,4372.54C2276.79,4369.59 2284.57,4370.8 2290.05,4375.63L2542.46,4598.04C2546.49,4601.59 2548.81,4606.71 2548.81,4612.08C2548.82,4617.46 2546.52,4622.58 2542.49,4626.15L2281.43,4857.21C2275.86,4862.14 2267.89,4863.31 2261.14,4860.19C2254.38,4857.07 2250.11,4850.25 2250.25,4842.81L2252.53,4723.68L2057.5,4723.68C1951.12,4723.68 1864.75,4810.05 1864.75,4916.43ZM1864.75,4790.51C1905.89,4727.7 1976.88,4686.18 2057.5,4686.18L2271.64,4686.18C2276.67,4686.18 2281.5,4688.21 2285.02,4691.8C2288.55,4695.4 2290.48,4700.26 2290.39,4705.29L2288.56,4800.82L2501.74,4612.14L2295.63,4430.53L2293.76,4528.36C2293.57,4538.57 2285.23,4546.75 2275.02,4546.75L2057.5,4546.75C1951.12,4546.75 1864.75,4633.12 1864.75,4739.5L1864.75,4790.51Z" style="fill:rgb(34,34,34);"/>
                </g>
            </g>
        </g>
    </g>
</svg>
